<svg width="141" height="271" viewBox="0 0 141 271" fill="none" xmlns="http://www.w3.org/2000/svg">
<rect width="141" height="271" fill="#EDF3F8"/>
<g clip-path="url(#clip0_0_1)">
<rect width="375" height="4187" transform="translate(-198 -2011)" fill="#EDF3F8"/>
</g>
<path fill-rule="evenodd" clip-rule="evenodd" d="M19.2452 0.308421H119.41C129.017 0.308421 136.804 8.0232 136.804 17.5399V253.432C136.804 262.949 129.017 270.664 119.41 270.664H19.2452C9.63883 270.664 1.8513 262.949 1.8513 253.432V17.5399C1.8513 8.0232 9.63883 0.308421 19.2452 0.308421Z" fill="#213648"/>
<path fill-rule="evenodd" clip-rule="evenodd" d="M119.798 0H18.7982C14.0828 0.297504 9.73396 2.5238 5.75176 6.6789C8.31277 4.36585 12.8806 1.27063 18.9197 1.27063C18.9197 1.27063 115.65 1.27063 119.676 1.27063C125.715 1.27063 130.283 4.36585 132.844 6.6789C128.862 2.5238 124.513 0.297504 119.798 0Z" fill="url(#paint0_linear_0_1)" fill-opacity="0.65"/>
<path fill-rule="evenodd" clip-rule="evenodd" d="M134.071 250.743V18.9586C134.071 12.7397 131.862 10.4407 130.544 8.96446C129.227 7.48824 129.17 6.7353 131.064 7.84988C132.957 8.96446 136.745 12.2107 136.745 18.9586V250.743C136.745 257.491 132.957 260.737 131.064 261.851C129.17 262.966 129.227 262.213 130.544 260.737C131.862 259.261 134.071 256.962 134.071 250.743Z" fill="url(#paint1_linear_0_1)"/>
<path fill-rule="evenodd" clip-rule="evenodd" d="M4.52462 250.743V18.9586C4.52462 12.7397 6.73365 10.4407 8.05145 8.96446C9.36926 7.48824 9.42535 6.7353 7.53189 7.84988C5.63844 8.96446 1.85123 12.2107 1.85123 18.9586V250.743C1.85123 257.491 5.63844 260.737 7.53189 261.851C9.42535 262.966 9.36926 262.213 8.05145 260.737C6.73365 259.261 4.52462 256.962 4.52462 250.743Z" fill="url(#paint2_linear_0_1)"/>
<path fill-rule="evenodd" clip-rule="evenodd" d="M0.506226 56.5251C0.506226 55.7041 1.08833 55.0386 1.8064 55.0386C2.52447 55.0386 3.10658 55.7041 3.10658 56.5251V88.4267C3.10658 89.2477 2.52447 89.9132 1.8064 89.9132C1.08833 89.9132 0.506226 89.2477 0.506226 88.4267V56.5251Z" fill="#2E423C"/>
<path fill-rule="evenodd" clip-rule="evenodd" d="M135.399 84.9701C135.399 84.1491 135.982 83.4836 136.7 83.4836C137.418 83.4836 138 84.1491 138 84.9701V107.441C138 108.262 137.418 108.928 136.7 108.928C135.982 108.928 135.399 108.262 135.399 107.441V84.9701Z" fill="#2E423C"/>
<path fill-rule="evenodd" clip-rule="evenodd" d="M57.4292 6.74459H18.4563C12.6399 6.74459 8.40192 10.8435 8.40192 16.1969V245.109C8.40192 252.089 14.9504 258.274 22.3551 258.274H116.287C123.42 258.274 130.24 252.041 130.24 245.109V16.8156C130.24 10.3992 125.636 6.78275 120.186 6.74459H80.5952C80.4451 6.77003 77.7255 7.92698 76.5761 10.8435C75.4266 13.76 73.1138 16.0849 70.5817 16.0849H67.6406C66.437 16.0849 63.2681 14.8766 61.6636 10.8435C60.059 6.8104 57.5792 6.77003 57.4292 6.74459Z" fill="#36536B"/>
<path fill-rule="evenodd" clip-rule="evenodd" d="M57.4292 6.74459H18.4563C12.6399 6.74459 8.40192 10.8435 8.40192 16.1969V245.109C8.40192 252.089 14.9504 258.274 22.3551 258.274H116.287C123.42 258.274 130.24 252.041 130.24 245.109V16.8156C130.24 10.3992 125.636 6.78275 120.186 6.74459H80.5952C80.4451 6.77003 77.7255 7.92698 76.5761 10.8435C75.4266 13.76 73.1138 16.0849 70.5817 16.0849H67.6406C66.437 16.0849 63.2681 14.8766 61.6636 10.8435C60.059 6.8104 57.5792 6.77003 57.4292 6.74459Z" fill="#36536B"/>
<g filter="url(#filter0_d_0_1)">
<rect x="23.0291" y="76.9551" width="92.1862" height="103.512" rx="2" fill="#FBFCFE"/>
</g>
<path fill-rule="evenodd" clip-rule="evenodd" d="M79.6696 140.947L79.6697 141.576H78.8117L78.8117 140.948L78.7963 140.946C78.4113 140.897 78.085 140.784 77.8176 140.605C77.4499 140.36 77.2388 139.981 77.1843 139.469L78.2193 139.448C78.2738 139.681 78.3913 139.857 78.5717 139.978C78.7522 140.099 78.9786 140.16 79.2509 140.16C79.4144 140.16 79.5591 140.132 79.685 140.077C79.811 140.022 79.9103 139.947 79.9829 139.851C80.0556 139.756 80.0919 139.648 80.0919 139.526C80.0919 139.338 80.034 139.197 79.9182 139.105C79.8025 139.012 79.6243 138.937 79.3837 138.881L78.5768 138.701C78.2023 138.624 77.9021 138.469 77.6763 138.238C77.4505 138.007 77.3353 137.696 77.3307 137.306C77.3285 136.987 77.4119 136.71 77.581 136.477C77.7501 136.243 77.9804 136.063 78.2721 135.936L78.3993 135.886C78.5287 135.839 78.6646 135.804 78.8071 135.781L78.8284 135.778L78.8288 135.08H79.6901L79.6901 135.782L79.7748 135.797C79.9357 135.832 80.0839 135.883 80.2195 135.952C80.4908 136.089 80.6996 136.274 80.846 136.505C80.9924 136.736 81.0633 136.992 81.0588 137.271L80.0544 137.289C80.0226 137.063 79.95 136.886 79.8365 136.757C79.723 136.628 79.5347 136.563 79.2714 136.563C79.1352 136.563 79.0137 136.578 78.9071 136.609C78.8004 136.639 78.7085 136.682 78.6313 136.737C78.5541 136.793 78.4957 136.858 78.456 136.933C78.4162 137.008 78.3964 137.093 78.3964 137.187C78.3964 137.335 78.4446 137.451 78.5411 137.537C78.6375 137.623 78.8197 137.702 79.0875 137.775L79.8808 137.976C80.3279 138.086 80.6508 138.275 80.8494 138.543C81.048 138.811 81.1473 139.136 81.1473 139.519C81.1473 139.812 81.0696 140.068 80.9141 140.287C80.7586 140.505 80.539 140.674 80.2553 140.794L80.1306 140.841C80.0029 140.885 79.8661 140.918 79.72 140.94L79.6696 140.947ZM41.2718 139.036V140.903H40.5296V135.809H42.2353C42.5871 135.809 42.902 135.871 43.1801 135.996C43.4581 136.12 43.6771 136.303 43.8372 136.545C43.9972 136.787 44.0772 137.084 44.0772 137.437C44.0772 137.775 44.004 138.063 43.8576 138.301C43.7112 138.54 43.5069 138.722 43.2448 138.847C42.9826 138.973 42.679 139.036 42.334 139.036H41.2718ZM41.2683 138.42H42.3135C42.6268 138.42 42.8821 138.326 43.0796 138.14C43.277 137.953 43.3758 137.705 43.3758 137.395C43.3758 137.08 43.2736 136.839 43.0694 136.671C42.8651 136.503 42.6041 136.419 42.2863 136.419H41.2683V138.42ZM45.6272 140.973C45.8792 140.973 46.1056 140.919 46.3065 140.813C46.5073 140.706 46.6736 140.513 46.8052 140.233L46.8631 140.902H47.4794V138.355C47.4794 138.107 47.4289 137.895 47.3278 137.721C47.2268 137.548 47.0731 137.416 46.8665 137.325C46.66 137.235 46.3967 137.189 46.0767 137.189C45.7884 137.189 45.5376 137.232 45.3242 137.316C45.1109 137.401 44.9435 137.526 44.8221 137.691C44.7006 137.857 44.6331 138.061 44.6195 138.303H45.2527C45.2981 138.098 45.394 137.952 45.5404 137.862C45.6868 137.773 45.8542 137.728 46.0426 137.728C46.2923 137.726 46.4773 137.785 46.5976 137.905C46.7179 138.024 46.778 138.189 46.778 138.398V138.662L46.1992 138.68C45.5932 138.691 45.1517 138.797 44.8748 138.997C44.5979 139.196 44.4595 139.498 44.4595 139.902C44.4595 140.127 44.5094 140.32 44.6093 140.48C44.7091 140.639 44.847 140.761 45.0229 140.846C45.1988 140.931 45.4003 140.973 45.6272 140.973ZM45.3582 140.285C45.4899 140.394 45.6556 140.448 45.8553 140.448C45.9665 140.448 46.0766 140.428 46.1855 140.387C46.2945 140.346 46.3932 140.289 46.4817 140.218C46.5703 140.146 46.6412 140.066 46.6945 139.976C46.7479 139.887 46.7757 139.796 46.7779 139.702V139.099L46.3013 139.11C46.0584 139.112 45.8525 139.138 45.6834 139.187C45.5143 139.237 45.3849 139.313 45.2952 139.416C45.2056 139.52 45.1608 139.657 45.1608 139.828C45.1608 140.023 45.2266 140.175 45.3582 140.285ZM48.735 142.065C48.903 142.065 49.0584 142.038 49.2014 141.984C49.3444 141.93 49.4755 141.834 49.5947 141.695C49.7138 141.557 49.8233 141.361 49.9232 141.107L51.3906 137.26H50.6756L49.6951 139.952L48.7078 137.26H47.9792L49.3512 140.797L49.2423 141.103C49.2287 141.143 49.2082 141.187 49.181 141.234C49.1538 141.281 49.1146 141.325 49.0635 141.366C49.0125 141.407 48.9433 141.439 48.8559 141.463C48.7685 141.486 48.6567 141.494 48.5205 141.487L48.163 141.48V141.967L48.2873 142.016C48.3701 142.049 48.5194 142.065 48.735 142.065ZM52.6968 138.496V140.902H51.9682V137.26H52.6763V137.785C52.7762 137.625 52.9124 137.486 53.0849 137.367C53.2574 137.249 53.4798 137.189 53.7522 137.189C53.8793 137.189 54.0081 137.212 54.1386 137.256C54.2691 137.301 54.3894 137.367 54.4995 137.455C54.6096 137.544 54.6964 137.652 54.76 137.781C54.8712 137.608 55.0198 137.465 55.206 137.355C55.3921 137.245 55.6009 137.189 55.8324 137.189C55.9572 137.189 56.0866 137.21 56.2205 137.251C56.3544 137.292 56.4787 137.362 56.5933 137.459C56.708 137.556 56.801 137.691 56.8725 137.862C56.944 138.034 56.9798 138.251 56.9798 138.514V140.902H56.2478V138.595C56.2478 138.395 56.2154 138.239 56.1507 138.127C56.086 138.014 56.0021 137.935 55.8988 137.889C55.7955 137.843 55.686 137.82 55.5702 137.82C55.4658 137.82 55.3569 137.841 55.2434 137.883C55.1299 137.926 55.0335 137.996 54.954 138.095C54.8746 138.193 54.8349 138.327 54.8349 138.496V140.902H54.1063V138.433C54.1063 138.299 54.0717 138.186 54.0024 138.095C53.9332 138.003 53.8469 137.935 53.7437 137.889C53.6404 137.843 53.5377 137.82 53.4356 137.82C53.3221 137.82 53.2086 137.844 53.0951 137.89C52.9816 137.937 52.8869 138.011 52.8108 138.111C52.7348 138.21 52.6968 138.339 52.6968 138.496ZM59.3697 140.973C59.6035 140.973 59.827 140.929 60.0404 140.841C60.2538 140.753 60.4359 140.622 60.5868 140.448C60.7378 140.274 60.8337 140.063 60.8745 139.814H60.2004C60.1528 140.009 60.0523 140.156 59.8991 140.254C59.7459 140.353 59.5649 140.402 59.3561 140.402C59.1473 140.402 58.9725 140.352 58.8318 140.252C58.691 140.153 58.5861 140.016 58.5168 139.844C58.4476 139.671 58.413 139.476 58.413 139.257H60.8916V139.007C60.8916 138.638 60.8314 138.318 60.7111 138.047C60.5908 137.776 60.4143 137.565 60.1817 137.415C59.949 137.265 59.6625 137.189 59.322 137.189C58.977 137.189 58.682 137.272 58.4368 137.436C58.1917 137.6 58.0044 137.828 57.8751 138.118C57.7457 138.408 57.681 138.742 57.681 139.12C57.681 139.503 57.7519 139.833 57.8938 140.11C58.0357 140.387 58.2337 140.6 58.4879 140.749C58.7421 140.898 59.036 140.973 59.3697 140.973ZM58.4129 138.768H60.1969C60.1969 138.578 60.1652 138.405 60.1016 138.249C60.0381 138.092 59.941 137.969 59.8105 137.879C59.68 137.788 59.516 137.743 59.3186 137.743C59.1165 137.743 58.9486 137.794 58.8147 137.894C58.6808 137.995 58.5803 138.125 58.5134 138.282C58.4464 138.439 58.4129 138.601 58.4129 138.768ZM62.381 140.902V138.496C62.381 138.346 62.4207 138.221 62.5002 138.121C62.5796 138.021 62.684 137.946 62.8134 137.897C62.9428 137.848 63.0789 137.823 63.2219 137.823C63.4353 137.823 63.6095 137.887 63.7445 138.013C63.8796 138.14 63.9471 138.334 63.9471 138.595V140.902H64.6757V138.514C64.6757 138.211 64.619 137.963 64.5055 137.772C64.392 137.581 64.2416 137.44 64.0544 137.349C63.8671 137.259 63.6634 137.214 63.4432 137.214C63.2571 137.214 63.0931 137.241 62.9513 137.295C62.8094 137.349 62.6903 137.419 62.5938 137.506C62.4973 137.593 62.4207 137.686 62.364 137.784V137.26H61.6524V140.902H62.381ZM67.0991 140.907C67.0094 140.921 66.8942 140.928 66.7535 140.928C66.4925 140.928 66.2899 140.892 66.1458 140.819C66.0017 140.746 65.9018 140.641 65.8462 140.504C65.7906 140.366 65.7628 140.2 65.7628 140.005V137.803H65.1908V137.261H65.7832L65.9636 136.19H66.4914V137.257H67.2812V137.803H66.4914L66.4948 139.977C66.4948 140.097 66.5067 140.184 66.5305 140.239C66.5543 140.295 66.5952 140.33 66.6531 140.345C66.711 140.36 66.7898 140.368 66.8897 140.368H67.3017V140.858C67.2563 140.876 67.1887 140.893 67.0991 140.907ZM70.9243 140.973C71.2761 140.973 71.5728 140.894 71.8146 140.735C72.0563 140.577 72.2401 140.356 72.3661 140.075C72.4921 139.793 72.5551 139.467 72.5551 139.099C72.5551 138.695 72.4881 138.35 72.3542 138.065C72.2203 137.78 72.0319 137.562 71.789 137.413C71.5462 137.264 71.259 137.189 70.9277 137.189C70.5804 137.189 70.2842 137.269 70.0391 137.427C69.7939 137.586 69.6072 137.808 69.479 138.095C69.3508 138.381 69.2866 138.716 69.2866 139.099C69.2866 139.496 69.3542 139.834 69.4892 140.113C69.6243 140.393 69.8149 140.606 70.0612 140.753C70.3075 140.899 70.5951 140.973 70.9243 140.973ZM70.393 140.213C70.5292 140.333 70.7074 140.393 70.9276 140.393C71.1273 140.393 71.2947 140.338 71.4297 140.229C71.5648 140.12 71.6664 139.966 71.7345 139.767C71.8026 139.569 71.8366 139.339 71.8366 139.079C71.8366 138.837 71.8065 138.617 71.7464 138.418C71.6862 138.22 71.5892 138.062 71.4553 137.944C71.3214 137.827 71.1455 137.768 70.9276 137.768C70.7233 137.768 70.5531 137.822 70.4169 137.929C70.2807 138.035 70.178 138.187 70.1088 138.383C70.0395 138.579 70.0049 138.811 70.0049 139.079C70.0049 139.316 70.0356 139.534 70.0968 139.734C70.1581 139.933 70.2569 140.093 70.393 140.213ZM74.3633 140.903V137.803H75.1872V137.26H74.3497V136.795C74.3497 136.638 74.3752 136.521 74.4263 136.445C74.4774 136.369 74.5733 136.33 74.714 136.33H75.2213L75.2179 135.809H74.5165C74.226 135.809 74.0058 135.886 73.856 136.04C73.7062 136.194 73.6313 136.416 73.6313 136.707V137.26H72.913V137.803H73.6313V140.903H74.3633ZM83.536 140.98C83.9673 140.98 84.3384 140.88 84.6493 140.679C84.9603 140.478 85.1992 140.175 85.366 139.77C85.5328 139.365 85.6162 138.858 85.6162 138.25C85.6162 137.74 85.5351 137.297 85.3728 136.92C85.2105 136.543 84.9779 136.252 84.6749 136.047C84.3719 135.841 84.0115 135.738 83.5939 135.738C83.2217 135.738 82.8971 135.812 82.6202 135.96C82.3433 136.108 82.1277 136.312 81.9733 136.573C81.819 136.834 81.7418 137.131 81.7418 137.464C81.7418 137.796 81.815 138.081 81.9614 138.322C82.1078 138.563 82.3098 138.748 82.5674 138.879C82.825 139.009 83.1207 139.074 83.4543 139.074C83.6382 139.074 83.805 139.049 83.9548 138.999C84.1046 138.948 84.2357 138.876 84.348 138.784C84.4604 138.691 84.5483 138.582 84.6119 138.458C84.6391 138.864 84.6079 139.193 84.5183 139.444C84.4286 139.695 84.2947 139.879 84.1165 139.994C83.9383 140.109 83.7312 140.166 83.4952 140.166C83.2818 140.166 83.1048 140.105 82.9641 139.981C82.8233 139.858 82.7325 139.698 82.6917 139.5H81.7452C81.7656 139.799 81.8598 140.059 82.0278 140.281C82.1958 140.503 82.4125 140.675 82.6781 140.797C82.9436 140.919 83.2296 140.98 83.536 140.98ZM83.0356 138.037C83.1854 138.184 83.3817 138.257 83.6246 138.257C83.7631 138.257 83.8975 138.225 84.0281 138.16C84.1586 138.095 84.2658 138.014 84.3498 137.915C84.4338 137.817 84.4758 137.714 84.4758 137.609C84.478 137.381 84.4434 137.185 84.3719 137.022C84.3004 136.859 84.2006 136.734 84.0723 136.647C83.9441 136.56 83.7948 136.517 83.6246 136.517C83.468 136.517 83.3284 136.554 83.2058 136.629C83.0833 136.705 82.9868 136.81 82.9165 136.946C82.8461 137.083 82.8109 137.24 82.8109 137.419C82.8109 137.684 82.8858 137.89 83.0356 138.037ZM89.8639 140.902V140.036H87.3547V139.99C87.3547 139.835 87.4001 139.702 87.4909 139.592C87.5817 139.482 87.702 139.382 87.8518 139.294C88.0016 139.206 88.1656 139.12 88.3437 139.035C88.5219 138.951 88.7007 138.859 88.88 138.761C89.0593 138.662 89.2238 138.547 89.3736 138.416C89.5234 138.284 89.6437 138.125 89.7345 137.94C89.8253 137.754 89.8707 137.534 89.8707 137.278C89.8707 136.97 89.7981 136.701 89.6528 136.471C89.5076 136.241 89.3016 136.061 89.0349 135.932C88.7682 135.803 88.451 135.738 88.0833 135.738C87.6543 135.738 87.298 135.816 87.0142 135.971C86.7305 136.126 86.5177 136.335 86.3759 136.6C86.234 136.864 86.1608 137.158 86.1563 137.482H87.1062C87.147 137.184 87.2537 136.961 87.4262 136.813C87.5987 136.665 87.8087 136.591 88.0561 136.591C88.2944 136.591 88.4822 136.655 88.6195 136.785C88.7568 136.914 88.8255 137.08 88.8255 137.285C88.8255 137.444 88.779 137.583 88.6859 137.7C88.5928 137.818 88.4697 137.924 88.3165 138.019C88.1633 138.114 87.9948 138.209 87.8109 138.303C87.6271 138.397 87.4438 138.497 87.2611 138.602C87.0784 138.708 86.9104 138.831 86.7572 138.97C86.604 139.11 86.4809 139.274 86.3878 139.463C86.2947 139.653 86.2482 139.876 86.2482 140.135V140.902H89.8639ZM93.7269 140.305C93.3932 140.755 92.929 140.98 92.3344 140.98C91.7374 140.98 91.2716 140.756 90.9368 140.307C90.602 139.859 90.4346 139.213 90.4346 138.37C90.4346 137.806 90.5118 137.328 90.6661 136.936C90.8205 136.544 91.0395 136.246 91.3232 136.043C91.6069 135.84 91.944 135.738 92.3344 135.738C92.92 135.738 93.3819 135.964 93.72 136.416C94.0582 136.868 94.2273 137.518 94.2273 138.366C94.2273 139.209 94.0605 139.856 93.7269 140.305ZM92.3343 140.139C92.0392 140.139 91.8213 140.003 91.6806 139.731C91.5398 139.458 91.4695 139.005 91.4695 138.371C91.4695 137.725 91.5404 137.26 91.6823 136.976C91.8241 136.692 92.0403 136.55 92.3308 136.55C92.6214 136.55 92.8359 136.691 92.9743 136.972C93.1128 137.254 93.182 137.72 93.182 138.371C93.182 139.007 93.1139 139.461 92.9777 139.732C92.8415 140.004 92.627 140.139 92.3343 140.139ZM97.9608 139.776V140.903H97.0041L97.0075 139.776H94.7401V138.93L96.9837 135.809H97.9608V138.913H98.7201V139.776H97.9608ZM97.0076 138.912H95.6594L97.0076 137.045V138.912ZM44.0713 145.568V146.311H43.3393V145.568H44.0713ZM44.0576 150.659V147.016H43.3563V150.659H44.0576ZM47.0858 150.596C46.8781 150.684 46.6313 150.728 46.3453 150.728C46.1002 150.728 45.8703 150.688 45.6559 150.608C45.4414 150.528 45.2621 150.403 45.1179 150.231C44.9738 150.06 44.8836 149.84 44.8473 149.572H45.4975C45.5271 149.711 45.5832 149.825 45.6661 149.916C45.7489 150.006 45.8488 150.073 45.9657 150.117C46.0826 150.16 46.208 150.182 46.3419 150.182C46.5643 150.182 46.7442 150.14 46.8815 150.057C47.0188 149.973 47.0875 149.845 47.0875 149.671C47.0875 149.547 47.0506 149.447 46.9768 149.372C46.9031 149.297 46.7868 149.241 46.6279 149.206L45.9265 149.033C45.636 148.963 45.4033 148.851 45.2286 148.697C45.0538 148.543 44.9653 148.328 44.963 148.051C44.963 147.837 45.0147 147.647 45.1179 147.48C45.2212 147.313 45.375 147.182 45.5793 147.087C45.7835 146.992 46.0377 146.945 46.3419 146.945C46.7391 146.945 47.058 147.036 47.2986 147.219C47.5392 147.403 47.664 147.668 47.6731 148.015H47.0432C47.0205 147.849 46.9473 147.718 46.8236 147.623C46.6999 147.528 46.5371 147.48 46.3351 147.48C46.1263 147.48 45.9549 147.523 45.821 147.609C45.6871 147.694 45.6201 147.825 45.6201 148.001C45.6201 148.121 45.6689 148.216 45.7665 148.285C45.8641 148.354 46.0105 148.411 46.2057 148.456L46.873 148.628C47.0455 148.675 47.1874 148.737 47.2986 148.813C47.4098 148.89 47.4972 148.974 47.5607 149.065C47.6243 149.157 47.6691 149.252 47.6952 149.351C47.7213 149.449 47.7344 149.542 47.7344 149.629C47.7344 149.859 47.6782 150.056 47.5658 150.219C47.4535 150.382 47.2935 150.508 47.0858 150.596ZM51.3206 150.728C51.5793 150.728 51.8114 150.676 52.0168 150.573C52.2222 150.47 52.3891 150.325 52.5173 150.14C52.6455 149.954 52.7222 149.739 52.7471 149.495H52.1275C52.1093 149.605 52.0673 149.712 52.0015 149.816C51.9357 149.919 51.8466 150.003 51.7343 150.069C51.6219 150.135 51.4897 150.168 51.3376 150.168C51.0221 150.168 50.7821 150.048 50.6175 149.808C50.453 149.569 50.3707 149.247 50.3707 148.843C50.3707 148.402 50.4592 148.074 50.6363 147.86C50.8133 147.647 51.0425 147.54 51.324 147.54C51.4783 147.54 51.6117 147.571 51.724 147.633C51.8364 147.695 51.926 147.778 51.993 147.882C52.06 147.985 52.1037 148.096 52.1241 148.216H52.7539C52.7267 147.963 52.6495 147.741 52.5224 147.55C52.3953 147.36 52.2291 147.212 52.0236 147.105C51.8182 146.998 51.5839 146.945 51.3206 146.945C50.9779 146.945 50.6834 147.024 50.4371 147.184C50.1908 147.344 50.003 147.567 49.8736 147.853C49.7443 148.14 49.6796 148.472 49.6796 148.85C49.6796 149.252 49.7494 149.593 49.889 149.874C50.0285 150.154 50.222 150.367 50.4694 150.511C50.7168 150.656 51.0006 150.728 51.3206 150.728ZM55.8302 150.49C55.5885 150.649 55.2917 150.728 54.9399 150.728C54.6108 150.728 54.3231 150.654 54.0769 150.508C53.8306 150.361 53.6399 150.148 53.5049 149.868C53.3698 149.589 53.3023 149.251 53.3023 148.854C53.3023 148.471 53.3664 148.136 53.4947 147.85C53.6229 147.563 53.8096 147.341 54.0547 147.182C54.2999 147.024 54.5961 146.945 54.9433 146.945C55.2747 146.945 55.5618 147.019 55.8047 147.168C56.0476 147.317 56.2359 147.535 56.3699 147.82C56.5038 148.105 56.5707 148.45 56.5707 148.854C56.5707 149.223 56.5077 149.548 56.3818 149.83C56.2558 150.111 56.072 150.332 55.8302 150.49ZM54.9432 150.147C54.7231 150.147 54.5449 150.087 54.4087 149.967C54.2725 149.847 54.1738 149.688 54.1125 149.488C54.0512 149.288 54.0206 149.07 54.0206 148.833C54.0206 148.565 54.0552 148.333 54.1244 148.137C54.1937 147.941 54.2964 147.789 54.4325 147.683C54.5687 147.576 54.739 147.522 54.9432 147.522C55.1611 147.522 55.337 147.581 55.4709 147.698C55.6049 147.816 55.7019 147.974 55.762 148.172C55.8222 148.371 55.8523 148.591 55.8523 148.833C55.8523 149.093 55.8182 149.323 55.7501 149.521C55.682 149.72 55.5805 149.874 55.4454 149.983C55.3104 150.092 55.143 150.147 54.9432 150.147ZM58.0249 148.251V150.657H57.2963V147.015H58.0045V147.54C58.1044 147.38 58.2405 147.241 58.413 147.122C58.5855 147.004 58.808 146.945 59.0803 146.945C59.2074 146.945 59.3363 146.967 59.4668 147.011C59.5973 147.056 59.7176 147.122 59.8277 147.211C59.9377 147.299 60.0245 147.407 60.0881 147.536C60.1993 147.363 60.348 147.22 60.5341 147.11C60.7202 147 60.929 146.945 61.1606 146.945C61.2854 146.945 61.4148 146.965 61.5487 147.006C61.6826 147.047 61.8069 147.117 61.9215 147.214C62.0361 147.311 62.1292 147.446 62.2007 147.617C62.2722 147.789 62.3079 148.006 62.3079 148.269V150.657H61.5759V148.35C61.5759 148.15 61.5436 147.994 61.4789 147.882C61.4142 147.769 61.3302 147.69 61.2269 147.644C61.1237 147.598 61.0142 147.575 60.8984 147.575C60.794 147.575 60.685 147.596 60.5716 147.639C60.4581 147.681 60.3616 147.751 60.2822 147.85C60.2027 147.949 60.163 148.082 60.163 148.251V150.657H59.4344V148.188C59.4344 148.054 59.3998 147.941 59.3306 147.85C59.2614 147.758 59.1751 147.69 59.0718 147.644C58.9686 147.598 58.8659 147.575 58.7637 147.575C58.6502 147.575 58.5367 147.599 58.4233 147.646C58.3098 147.693 58.215 147.766 58.139 147.866C58.0629 147.966 58.0249 148.094 58.0249 148.251ZM63.9214 151.792V150.03C63.9622 150.11 64.0138 150.191 64.0763 150.272C64.1387 150.353 64.2141 150.428 64.3027 150.497C64.3912 150.566 64.4933 150.622 64.6091 150.664C64.7248 150.707 64.8553 150.728 65.0006 150.728C65.3025 150.728 65.5635 150.654 65.7837 150.508C66.0038 150.361 66.1735 150.144 66.2927 149.858C66.4118 149.571 66.4714 149.217 66.4714 148.794C66.4714 148.374 66.4118 148.027 66.2927 147.753C66.1735 147.479 66.0078 147.276 65.7956 147.144C65.5834 147.011 65.3388 146.945 65.0619 146.945C64.9144 146.945 64.7799 146.965 64.6584 147.004C64.537 147.044 64.4292 147.098 64.335 147.165C64.2408 147.232 64.1597 147.304 64.0916 147.383C64.0235 147.462 63.9679 147.541 63.9248 147.621L63.9179 147.015H63.1894V151.792H63.9214ZM64.3333 149.971C64.4717 150.093 64.6431 150.154 64.8474 150.154C65.1175 150.154 65.3394 150.046 65.513 149.829C65.6866 149.611 65.7734 149.271 65.7734 148.809C65.7734 148.412 65.6934 148.098 65.5334 147.866C65.3734 147.635 65.1447 147.519 64.8474 147.519C64.541 147.519 64.3095 147.64 64.1528 147.88C63.9962 148.121 63.9179 148.431 63.9179 148.809C63.9179 149.055 63.9525 149.28 64.0218 149.483C64.091 149.686 64.1948 149.849 64.3333 149.971ZM68.1517 150.707C68.2039 150.707 68.2601 150.701 68.3203 150.689C68.3804 150.677 68.4389 150.662 68.4956 150.643V150.164L68.3118 150.157C68.1778 150.145 68.0785 150.095 68.0139 150.006C67.9492 149.916 67.9168 149.787 67.9168 149.618V145.423H67.1985V149.696C67.1985 149.825 67.2092 149.95 67.2308 150.071C67.2524 150.192 67.2961 150.3 67.3619 150.395C67.4277 150.49 67.5236 150.566 67.6496 150.622C67.7755 150.678 67.9429 150.707 68.1517 150.707ZM71.3479 150.596C71.1345 150.684 70.9109 150.728 70.6772 150.728C70.3435 150.728 70.0496 150.653 69.7954 150.504C69.5411 150.355 69.3431 150.142 69.2013 149.865C69.0594 149.588 68.9885 149.258 68.9885 148.875C68.9885 148.497 69.0532 148.163 69.1825 147.873C69.3119 147.583 69.4992 147.356 69.7443 147.191C69.9894 147.027 70.2845 146.945 70.6295 146.945C70.9699 146.945 71.2565 147.02 71.4892 147.17C71.7218 147.32 71.8983 147.531 72.0186 147.802C72.1389 148.074 72.199 148.394 72.199 148.762V149.012H69.7205C69.7205 149.231 69.7551 149.426 69.8243 149.599C69.8935 149.771 69.9985 149.908 70.1392 150.007C70.2799 150.107 70.4547 150.157 70.6635 150.157C70.8723 150.157 71.0534 150.108 71.2066 150.009C71.3598 149.911 71.4602 149.764 71.5079 149.569H72.182C72.1411 149.818 72.0452 150.029 71.8943 150.203C71.7434 150.377 71.5612 150.508 71.3479 150.596ZM71.5045 148.523H69.7205C69.7205 148.356 69.754 148.194 69.8209 148.037C69.8879 147.88 69.9883 147.751 70.1222 147.65C70.2562 147.549 70.4241 147.498 70.6261 147.498C70.8236 147.498 70.9876 147.543 71.1181 147.634C71.2486 147.724 71.3456 147.847 71.4092 148.004C71.4727 148.16 71.5045 148.333 71.5045 148.523ZM74.5549 150.662C74.4652 150.676 74.3501 150.683 74.2093 150.683C73.9483 150.683 73.7457 150.647 73.6016 150.574C73.4575 150.501 73.3576 150.396 73.302 150.259C73.2464 150.121 73.2186 149.955 73.2186 149.76V147.558H72.6466V147.016H73.239L73.4195 145.945H73.9472V147.012H74.737V147.558H73.9472L73.9506 149.732C73.9506 149.852 73.9625 149.939 73.9863 149.994C74.0102 150.05 74.051 150.085 74.1089 150.1C74.1668 150.115 74.2456 150.123 74.3455 150.123H74.7575V150.613C74.7121 150.631 74.6446 150.648 74.5549 150.662ZM76.9508 150.728C77.1846 150.728 77.4081 150.684 77.6215 150.596C77.8349 150.508 78.017 150.377 78.1679 150.203C78.3189 150.029 78.4148 149.818 78.4556 149.569H77.7815C77.7339 149.764 77.6334 149.911 77.4802 150.009C77.327 150.108 77.146 150.157 76.9372 150.157C76.7284 150.157 76.5536 150.107 76.4129 150.007C76.2721 149.908 76.1672 149.771 76.0979 149.599C76.0287 149.426 75.9941 149.231 75.9941 149.012H78.4727V148.762C78.4727 148.394 78.4125 148.074 78.2922 147.802C78.1719 147.531 77.9954 147.32 77.7628 147.17C77.5301 147.02 77.2436 146.945 76.9031 146.945C76.5581 146.945 76.2631 147.027 76.0179 147.191C75.7728 147.356 75.5856 147.583 75.4562 147.873C75.3268 148.163 75.2621 148.497 75.2621 148.875C75.2621 149.258 75.333 149.588 75.4749 149.865C75.6168 150.142 75.8148 150.355 76.069 150.504C76.3232 150.653 76.6171 150.728 76.9508 150.728ZM75.9942 148.523H77.7782C77.7782 148.333 77.7464 148.16 77.6828 148.004C77.6193 147.847 77.5223 147.724 77.3917 147.634C77.2612 147.543 77.0972 147.498 76.8998 147.498C76.6978 147.498 76.5298 147.549 76.3959 147.65C76.262 147.751 76.1615 147.88 76.0946 148.037C76.0276 148.194 75.9942 148.356 75.9942 148.523ZM80.5171 150.728C80.7123 150.728 80.8792 150.701 81.0176 150.647C81.1561 150.593 81.2701 150.523 81.3598 150.439C81.4494 150.354 81.5204 150.265 81.5726 150.171C81.6248 150.077 81.6634 149.99 81.6883 149.91L81.77 150.657H82.3148V145.423H81.5828V147.568C81.5487 147.504 81.5005 147.436 81.4381 147.364C81.3757 147.291 81.2974 147.223 81.2032 147.159C81.109 147.096 81 147.044 80.8763 147.004C80.7526 146.964 80.6113 146.944 80.4525 146.944C80.1392 146.944 79.8765 147.022 79.6643 147.177C79.4521 147.332 79.2926 147.55 79.1859 147.83C79.0793 148.111 79.0259 148.44 79.0259 148.818C79.0259 149.436 79.1587 149.909 79.4243 150.236C79.6898 150.564 80.0541 150.728 80.5171 150.728ZM79.9844 149.809C80.1398 150.044 80.364 150.161 80.6568 150.161C80.9836 150.161 81.2197 150.055 81.3649 149.843C81.5102 149.63 81.5828 149.281 81.5828 148.795C81.5805 148.52 81.5476 148.287 81.4841 148.097C81.4205 147.907 81.3224 147.763 81.1896 147.666C81.0568 147.568 80.8826 147.519 80.667 147.519C80.3969 147.519 80.1767 147.62 80.0065 147.821C79.8363 148.021 79.7511 148.346 79.7511 148.795C79.7511 149.236 79.8289 149.574 79.9844 149.809ZM85.722 150.728C85.974 150.728 86.2004 150.674 86.4012 150.568C86.6021 150.461 86.7684 150.268 86.9 149.988L86.9579 150.657H87.5741V148.111C87.5741 147.862 87.5236 147.65 87.4226 147.476C87.3216 147.303 87.1679 147.171 86.9613 147.08C86.7548 146.99 86.4915 146.945 86.1714 146.945C85.8832 146.945 85.6324 146.987 85.419 147.071C85.2057 147.156 85.0383 147.281 84.9168 147.447C84.7954 147.612 84.7279 147.816 84.7143 148.058H85.3475C85.3929 147.853 85.4888 147.707 85.6352 147.617C85.7816 147.528 85.949 147.484 86.1374 147.484C86.3871 147.481 86.572 147.54 86.6923 147.66C86.8126 147.779 86.8728 147.944 86.8728 148.153V148.417L86.294 148.435C85.688 148.446 85.2465 148.552 84.9696 148.752C84.6927 148.951 84.5543 149.253 84.5543 149.657C84.5543 149.882 84.6042 150.075 84.7041 150.235C84.8039 150.394 84.9418 150.517 85.1177 150.601C85.2936 150.686 85.4951 150.728 85.722 150.728ZM85.4531 150.04C85.5848 150.149 85.7505 150.203 85.9502 150.203C86.0614 150.203 86.1715 150.183 86.2804 150.142C86.3894 150.101 86.4881 150.044 86.5766 149.973C86.6652 149.901 86.7361 149.821 86.7894 149.731C86.8428 149.642 86.8706 149.551 86.8728 149.457V148.854L86.3962 148.865C86.1533 148.867 85.9474 148.893 85.7783 148.942C85.6092 148.992 85.4798 149.068 85.3901 149.171C85.3005 149.275 85.2557 149.412 85.2557 149.583C85.2557 149.778 85.3215 149.93 85.4531 150.04ZM89.2724 150.658V148.252C89.2724 148.102 89.3122 147.977 89.3916 147.877C89.471 147.777 89.5754 147.702 89.7048 147.653C89.8342 147.604 89.9704 147.579 90.1134 147.579C90.3267 147.579 90.5009 147.643 90.636 147.769C90.771 147.896 90.8386 148.09 90.8386 148.351V150.658H91.5671V148.27C91.5671 147.967 91.5104 147.719 91.3969 147.528C91.2834 147.337 91.133 147.196 90.9458 147.105C90.7585 147.015 90.5548 146.97 90.3347 146.97C90.1485 146.97 89.9846 146.997 89.8427 147.051C89.7008 147.105 89.5817 147.175 89.4852 147.262C89.3888 147.349 89.3122 147.442 89.2554 147.54V147.016H88.5438V150.658H89.2724ZM94.234 150.647C94.0956 150.701 93.9287 150.728 93.7335 150.728C93.2705 150.728 92.9062 150.564 92.6407 150.236C92.3751 149.909 92.2423 149.436 92.2423 148.818C92.2423 148.44 92.2957 148.111 92.4023 147.83C92.509 147.55 92.6685 147.332 92.8807 147.177C93.0929 147.022 93.3556 146.944 93.6688 146.944C93.8277 146.944 93.969 146.964 94.0927 147.004C94.2164 147.044 94.3254 147.096 94.4196 147.159C94.5138 147.223 94.5921 147.291 94.6545 147.364C94.7169 147.436 94.7651 147.504 94.7992 147.568V145.423H95.5312V150.657H94.9864L94.9047 149.91C94.8798 149.99 94.8412 150.077 94.789 150.171C94.7368 150.265 94.6658 150.354 94.5762 150.439C94.4865 150.523 94.3725 150.593 94.234 150.647ZM93.873 150.161C93.5802 150.161 93.3561 150.044 93.2006 149.809C93.0452 149.574 92.9674 149.236 92.9674 148.795C92.9674 148.346 93.0525 148.021 93.2228 147.821C93.393 147.62 93.6132 147.519 93.8833 147.519C94.0989 147.519 94.2731 147.568 94.4059 147.666C94.5386 147.763 94.6368 147.907 94.7004 148.097C94.7639 148.287 94.7968 148.52 94.7991 148.795C94.7991 149.281 94.7265 149.63 94.5812 149.843C94.4359 150.055 94.1999 150.161 93.873 150.161ZM34.0369 159.786V161.548H33.3049V156.771H34.0335L34.0403 157.377C34.0835 157.297 34.1391 157.218 34.2072 157.139C34.2752 157.06 34.3564 156.988 34.4506 156.921C34.5448 156.854 34.6526 156.8 34.774 156.76C34.8954 156.721 35.0299 156.701 35.1775 156.701C35.4544 156.701 35.6989 156.767 35.9112 156.9C36.1234 157.032 36.2891 157.235 36.4082 157.509C36.5274 157.783 36.587 158.13 36.587 158.55C36.587 158.973 36.5274 159.327 36.4082 159.614C36.2891 159.9 36.1194 160.117 35.8992 160.264C35.6791 160.411 35.4181 160.484 35.1162 160.484C34.9709 160.484 34.8404 160.463 34.7247 160.421C34.6089 160.378 34.5068 160.322 34.4182 160.253C34.3297 160.184 34.2542 160.109 34.1918 160.028C34.1294 159.947 34.0778 159.866 34.0369 159.786ZM34.963 159.909C34.7587 159.909 34.5873 159.848 34.4489 159.726C34.3104 159.604 34.2066 159.441 34.1373 159.238C34.0681 159.035 34.0335 158.81 34.0335 158.564C34.0335 158.186 34.1118 157.876 34.2684 157.636C34.425 157.395 34.6565 157.274 34.963 157.274C35.2603 157.274 35.489 157.39 35.649 157.621C35.809 157.853 35.889 158.167 35.889 158.564C35.889 159.026 35.8022 159.366 35.6286 159.584C35.4549 159.801 35.2331 159.909 34.963 159.909ZM38.0426 158.222V160.413H37.314V156.771H38.012V157.518C38.071 157.339 38.1533 157.19 38.2588 157.069C38.3643 156.948 38.4875 156.856 38.6282 156.794C38.7689 156.732 38.9176 156.701 39.0742 156.701C39.1219 156.701 39.1673 156.704 39.2104 156.709C39.2535 156.715 39.2876 156.725 39.3125 156.739V157.465C39.283 157.451 39.245 157.442 39.1985 157.437C39.1519 157.432 39.1117 157.429 39.0776 157.426C38.9233 157.415 38.7825 157.423 38.6554 157.451C38.5283 157.479 38.4188 157.526 38.3269 157.592C38.235 157.658 38.1646 157.743 38.1158 157.849C38.067 157.955 38.0426 158.079 38.0426 158.222ZM41.3049 160.484C41.6567 160.484 41.9534 160.405 42.1952 160.246C42.4369 160.088 42.6207 159.867 42.7467 159.586C42.8727 159.304 42.9357 158.979 42.9357 158.61C42.9357 158.206 42.8687 157.861 42.7348 157.576C42.6009 157.291 42.4125 157.073 42.1696 156.924C41.9268 156.775 41.6396 156.701 41.3083 156.701C40.961 156.701 40.6648 156.78 40.4197 156.938C40.1745 157.097 39.9878 157.319 39.8596 157.606C39.7314 157.892 39.6672 158.227 39.6672 158.61C39.6672 159.007 39.7348 159.345 39.8698 159.624C40.0049 159.904 40.1955 160.117 40.4418 160.264C40.6881 160.411 40.9757 160.484 41.3049 160.484ZM40.7738 159.722C40.9099 159.842 41.0881 159.902 41.3083 159.902C41.508 159.902 41.6754 159.847 41.8105 159.738C41.9455 159.629 42.0471 159.475 42.1152 159.276C42.1833 159.078 42.2173 158.848 42.2173 158.588C42.2173 158.346 42.1872 158.126 42.1271 157.927C42.0669 157.729 41.9699 157.571 41.836 157.454C41.7021 157.336 41.5262 157.277 41.3083 157.277C41.104 157.277 40.9338 157.331 40.7976 157.438C40.6614 157.545 40.5587 157.696 40.4895 157.892C40.4203 158.088 40.3856 158.32 40.3856 158.588C40.3856 158.825 40.4163 159.043 40.4776 159.243C40.5388 159.443 40.6376 159.602 40.7738 159.722ZM45.0944 160.484C45.3532 160.484 45.5853 160.432 45.7907 160.329C45.9961 160.226 46.1629 160.081 46.2912 159.896C46.4194 159.71 46.496 159.495 46.521 159.251H45.9013C45.8832 159.361 45.8412 159.468 45.7754 159.572C45.7095 159.675 45.6205 159.759 45.5081 159.825C45.3958 159.891 45.2635 159.924 45.1115 159.924C44.796 159.924 44.556 159.804 44.3914 159.565C44.2268 159.325 44.1446 159.003 44.1446 158.599C44.1446 158.158 44.2331 157.83 44.4101 157.616C44.5872 157.403 44.8164 157.296 45.0978 157.296C45.2522 157.296 45.3855 157.327 45.4979 157.389C45.6102 157.452 45.6999 157.534 45.7669 157.638C45.8338 157.741 45.8775 157.852 45.8979 157.972H46.5278C46.5005 157.719 46.4234 157.497 46.2963 157.306C46.1692 157.116 46.0029 156.968 45.7975 156.861C45.5921 156.754 45.3577 156.701 45.0944 156.701C44.7517 156.701 44.4572 156.78 44.211 156.94C43.9647 157.1 43.7769 157.323 43.6475 157.609C43.5181 157.896 43.4534 158.228 43.4534 158.606C43.4534 159.008 43.5232 159.349 43.6628 159.63C43.8024 159.91 43.9959 160.123 44.2433 160.267C44.4907 160.412 44.7744 160.484 45.0944 160.484ZM49.4628 160.352C49.2495 160.44 49.0259 160.484 48.7921 160.484C48.4585 160.484 48.1645 160.409 47.9103 160.26C47.6561 160.111 47.4581 159.898 47.3162 159.621C47.1744 159.344 47.1034 159.014 47.1034 158.631C47.1034 158.253 47.1681 157.919 47.2975 157.629C47.4269 157.339 47.6141 157.112 47.8593 156.947C48.1044 156.783 48.3995 156.701 48.7445 156.701C49.0849 156.701 49.3715 156.776 49.6041 156.926C49.8368 157.076 50.0132 157.287 50.1335 157.558C50.2538 157.83 50.314 158.15 50.314 158.518V158.768H47.8354C47.8354 158.987 47.87 159.182 47.9393 159.355C48.0085 159.528 48.1135 159.664 48.2542 159.764C48.3949 159.863 48.5697 159.913 48.7785 159.913C48.9873 159.913 49.1683 159.864 49.3215 159.765C49.4747 159.667 49.5752 159.52 49.6228 159.325H50.297C50.2561 159.574 50.1602 159.785 50.0093 159.959C49.8583 160.133 49.6762 160.264 49.4628 160.352ZM49.6195 158.278H47.8355C47.8355 158.112 47.869 157.949 47.9359 157.792C48.0029 157.635 48.1033 157.506 48.2372 157.405C48.3711 157.304 48.5391 157.253 48.7411 157.253C48.9386 157.253 49.1026 157.298 49.2331 157.389C49.3636 157.479 49.4606 157.602 49.5242 157.759C49.5877 157.915 49.6195 158.088 49.6195 158.278ZM53.0853 160.352C52.8776 160.44 52.6308 160.484 52.3448 160.484C52.0997 160.484 51.8699 160.444 51.6554 160.364C51.4409 160.284 51.2616 160.159 51.1175 159.987C50.9733 159.816 50.8831 159.596 50.8468 159.328H51.4971C51.5266 159.467 51.5828 159.582 51.6656 159.672C51.7484 159.762 51.8483 159.829 51.9652 159.873C52.0821 159.916 52.2075 159.938 52.3414 159.938C52.5638 159.938 52.7437 159.896 52.881 159.813C53.0184 159.729 53.087 159.601 53.087 159.427C53.087 159.303 53.0501 159.203 52.9764 159.128C52.9026 159.053 52.7863 158.997 52.6274 158.962L51.926 158.79C51.6355 158.719 51.4029 158.607 51.2281 158.453C51.0533 158.299 50.9648 158.084 50.9625 157.807C50.9625 157.593 51.0142 157.403 51.1175 157.236C51.2207 157.069 51.3745 156.938 51.5788 156.843C51.7831 156.748 52.0373 156.701 52.3414 156.701C52.7386 156.701 53.0575 156.792 53.2981 156.975C53.5387 157.159 53.6635 157.424 53.6726 157.771H53.0428C53.0201 157.605 52.9469 157.474 52.8232 157.379C52.6995 157.284 52.5366 157.236 52.3346 157.236C52.1258 157.236 51.9544 157.279 51.8205 157.365C51.6866 157.45 51.6196 157.581 51.6196 157.757C51.6196 157.877 51.6684 157.972 51.766 158.041C51.8636 158.11 52.01 158.167 52.2052 158.212L52.8725 158.384C53.045 158.431 53.1869 158.493 53.2981 158.569C53.4093 158.646 53.4967 158.73 53.5603 158.821C53.6238 158.913 53.6686 159.008 53.6947 159.107C53.7208 159.205 53.7339 159.298 53.7339 159.385C53.7339 159.615 53.6777 159.812 53.5654 159.975C53.453 160.138 53.293 160.264 53.0853 160.352ZM55.7445 160.484C56.0305 160.484 56.2773 160.44 56.485 160.352C56.6927 160.264 56.8527 160.138 56.9651 159.975C57.0774 159.812 57.1336 159.615 57.1336 159.385C57.1336 159.298 57.1205 159.205 57.0944 159.107C57.0683 159.008 57.0235 158.913 56.96 158.821C56.8964 158.73 56.809 158.646 56.6978 158.569C56.5866 158.493 56.4447 158.431 56.2722 158.384L55.6049 158.212C55.4097 158.167 55.2633 158.11 55.1657 158.041C55.0681 157.972 55.0193 157.877 55.0193 157.757C55.0193 157.581 55.0863 157.45 55.2202 157.365C55.3541 157.279 55.5255 157.236 55.7343 157.236C55.9363 157.236 56.0992 157.284 56.2229 157.379C56.3466 157.474 56.4198 157.605 56.4425 157.771H57.0723C57.0632 157.424 56.9384 157.159 56.6978 156.975C56.4572 156.792 56.1383 156.701 55.7411 156.701C55.437 156.701 55.1828 156.748 54.9785 156.843C54.7742 156.938 54.6204 157.069 54.5172 157.236C54.4139 157.403 54.3622 157.593 54.3622 157.807C54.3645 158.084 54.453 158.299 54.6278 158.453C54.8026 158.607 55.0352 158.719 55.3258 158.79L56.0271 158.962C56.186 158.997 56.3023 159.053 56.3761 159.128C56.4498 159.203 56.4867 159.303 56.4867 159.427C56.4867 159.601 56.4181 159.729 56.2807 159.813C56.1434 159.896 55.9635 159.938 55.7411 159.938C55.6072 159.938 55.4818 159.916 55.3649 159.873C55.248 159.829 55.1481 159.762 55.0653 159.672C54.9825 159.582 54.9263 159.467 54.8968 159.328H54.2465C54.2828 159.596 54.373 159.816 54.5172 159.987C54.6613 160.159 54.8406 160.284 55.0551 160.364C55.2696 160.444 55.4994 160.484 55.7445 160.484ZM60.0872 160.352C59.8738 160.44 59.6503 160.484 59.4165 160.484C59.0828 160.484 58.7889 160.409 58.5347 160.26C58.2805 160.111 58.0824 159.898 57.9406 159.621C57.7987 159.344 57.7278 159.014 57.7278 158.631C57.7278 158.253 57.7925 157.919 57.9219 157.629C58.0512 157.339 58.2385 157.112 58.4836 156.947C58.7288 156.783 59.0238 156.701 59.3688 156.701C59.7093 156.701 59.9958 156.776 60.2285 156.926C60.4611 157.076 60.6376 157.287 60.7579 157.558C60.8782 157.83 60.9383 158.15 60.9383 158.518V158.768H58.4598C58.4598 158.987 58.4944 159.182 58.5636 159.355C58.6329 159.528 58.7378 159.664 58.8786 159.764C59.0193 159.863 59.194 159.913 59.4029 159.913C59.6117 159.913 59.7927 159.864 59.9459 159.765C60.0991 159.667 60.1995 159.52 60.2472 159.325H60.9213C60.8805 159.574 60.7846 159.785 60.6336 159.959C60.4827 160.133 60.3005 160.264 60.0872 160.352ZM60.2437 158.278H58.4597C58.4597 158.112 58.4932 157.949 58.5602 157.792C58.6271 157.635 58.7275 157.506 58.8615 157.405C58.9954 157.304 59.1633 157.253 59.3653 157.253C59.5628 157.253 59.7268 157.298 59.8573 157.389C59.9878 157.479 60.0848 157.602 60.1484 157.759C60.212 157.915 60.2437 158.088 60.2437 158.278ZM63.4834 160.403C63.345 160.457 63.1781 160.484 62.9829 160.484C62.5199 160.484 62.1556 160.32 61.8901 159.992C61.6245 159.665 61.4917 159.192 61.4917 158.574C61.4917 158.196 61.5451 157.867 61.6517 157.586C61.7584 157.306 61.9179 157.088 62.1301 156.933C62.3423 156.778 62.605 156.7 62.9183 156.7C63.0771 156.7 63.2184 156.72 63.3421 156.76C63.4658 156.8 63.5748 156.852 63.669 156.915C63.7632 156.979 63.8415 157.047 63.9039 157.12C63.9663 157.192 64.0145 157.261 64.0486 157.324V155.179H64.7806V160.413H64.2358L64.1541 159.666C64.1292 159.746 64.0906 159.833 64.0384 159.927C63.9862 160.021 63.9152 160.11 63.8256 160.195C63.7359 160.279 63.6219 160.349 63.4834 160.403ZM63.1224 159.916C62.8297 159.916 62.6055 159.799 62.45 159.564C62.2946 159.329 62.2168 158.991 62.2168 158.55C62.2168 158.101 62.3019 157.776 62.4722 157.576C62.6424 157.375 62.8626 157.274 63.1327 157.274C63.3483 157.274 63.5225 157.323 63.6553 157.421C63.788 157.518 63.8862 157.662 63.9498 157.852C64.0133 158.042 64.0462 158.275 64.0485 158.55C64.0485 159.036 63.9759 159.385 63.8306 159.598C63.6853 159.81 63.4493 159.916 63.1224 159.916ZM69.2313 160.352C69.0236 160.44 68.7768 160.484 68.4908 160.484C68.2457 160.484 68.0159 160.444 67.8014 160.364C67.5869 160.284 67.4076 160.159 67.2634 159.987C67.1193 159.816 67.0291 159.596 66.9928 159.328H67.6431C67.6726 159.467 67.7287 159.582 67.8116 159.672C67.8944 159.762 67.9943 159.829 68.1112 159.873C68.2281 159.916 68.3535 159.938 68.4874 159.938C68.7098 159.938 68.8897 159.896 69.027 159.813C69.1643 159.729 69.233 159.601 69.233 159.427C69.233 159.303 69.1961 159.203 69.1223 159.128C69.0486 159.053 68.9323 158.997 68.7734 158.962L68.072 158.79C67.7815 158.719 67.5489 158.607 67.3741 158.453C67.1993 158.299 67.1108 158.084 67.1085 157.807C67.1085 157.593 67.1602 157.403 67.2634 157.236C67.3667 157.069 67.5205 156.938 67.7248 156.843C67.929 156.748 68.1832 156.701 68.4874 156.701C68.8846 156.701 69.2035 156.792 69.4441 156.975C69.6847 157.159 69.8095 157.424 69.8186 157.771H69.1887C69.166 157.605 69.0928 157.474 68.9691 157.379C68.8454 157.284 68.6826 157.236 68.4806 157.236C68.2718 157.236 68.1004 157.279 67.9665 157.365C67.8326 157.45 67.7656 157.581 67.7656 157.757C67.7656 157.877 67.8144 157.972 67.912 158.041C68.0096 158.11 68.156 158.167 68.3512 158.212L69.0185 158.384C69.191 158.431 69.3329 158.493 69.4441 158.569C69.5553 158.646 69.6427 158.73 69.7062 158.821C69.7698 158.913 69.8146 159.008 69.8407 159.107C69.8668 159.205 69.8799 159.298 69.8799 159.385C69.8799 159.615 69.8237 159.812 69.7113 159.975C69.599 160.138 69.439 160.264 69.2313 160.352ZM71.9483 160.484C72.1094 160.487 72.2621 160.463 72.4062 160.412C72.5503 160.362 72.6752 160.279 72.7807 160.165C72.8863 160.052 72.9595 159.899 73.0003 159.709L73.082 160.414H73.6472V156.771H72.922V159.142C72.922 159.393 72.8494 159.584 72.7041 159.715C72.5589 159.845 72.3659 159.91 72.1253 159.91C71.8598 159.91 71.6612 159.842 71.5295 159.706C71.3979 159.57 71.3321 159.392 71.3321 159.174V156.771H70.6001V159.255C70.6001 159.457 70.637 159.634 70.7107 159.787C70.7845 159.939 70.8844 160.067 71.0103 160.171C71.1363 160.274 71.2799 160.352 71.441 160.403C71.6022 160.455 71.7713 160.482 71.9483 160.484ZM76.6591 160.329C76.4537 160.432 76.2217 160.484 75.9629 160.484C75.6429 160.484 75.3592 160.412 75.1118 160.267C74.8643 160.123 74.6709 159.91 74.5313 159.63C74.3917 159.349 74.3219 159.008 74.3219 158.606C74.3219 158.228 74.3866 157.896 74.5159 157.609C74.6453 157.323 74.8331 157.1 75.0794 156.94C75.3257 156.78 75.6202 156.701 75.9629 156.701C76.2262 156.701 76.4605 156.754 76.666 156.861C76.8714 156.968 77.0376 157.116 77.1647 157.306C77.2918 157.497 77.369 157.719 77.3962 157.972H76.7664C76.746 157.852 76.7023 157.741 76.6353 157.638C76.5684 157.534 76.4787 157.452 76.3663 157.389C76.254 157.327 76.1207 157.296 75.9663 157.296C75.6849 157.296 75.4556 157.403 75.2786 157.616C75.1015 157.83 75.013 158.158 75.013 158.599C75.013 159.003 75.0953 159.325 75.2599 159.565C75.4244 159.804 75.6644 159.924 75.9799 159.924C76.132 159.924 76.2642 159.891 76.3766 159.825C76.4889 159.759 76.578 159.675 76.6438 159.572C76.7096 159.468 76.7516 159.361 76.7698 159.251H77.3894C77.3645 159.495 77.2879 159.71 77.1596 159.896C77.0314 160.081 76.8646 160.226 76.6591 160.329ZM79.5856 160.484C79.8444 160.484 80.0765 160.432 80.2819 160.329C80.4873 160.226 80.6541 160.081 80.7824 159.896C80.9106 159.71 80.9872 159.495 81.0122 159.251H80.3925C80.3744 159.361 80.3324 159.468 80.2666 159.572C80.2007 159.675 80.1116 159.759 79.9993 159.825C79.8869 159.891 79.7547 159.924 79.6027 159.924C79.2872 159.924 79.0471 159.804 78.8826 159.565C78.718 159.325 78.6358 159.003 78.6358 158.599C78.6358 158.158 78.7243 157.83 78.9013 157.616C79.0784 157.403 79.3076 157.296 79.589 157.296C79.7434 157.296 79.8767 157.327 79.9891 157.389C80.1014 157.452 80.1911 157.534 80.258 157.638C80.325 157.741 80.3687 157.852 80.3891 157.972H81.019C80.9917 157.719 80.9146 157.497 80.7875 157.306C80.6604 157.116 80.4941 156.968 80.2887 156.861C80.0833 156.754 79.8489 156.701 79.5856 156.701C79.2429 156.701 78.9484 156.78 78.7021 156.94C78.4559 157.1 78.2681 157.323 78.1387 157.609C78.0093 157.896 77.9446 158.228 77.9446 158.606C77.9446 159.008 78.0144 159.349 78.154 159.63C78.2936 159.91 78.4871 160.123 78.7345 160.267C78.9819 160.412 79.2656 160.484 79.5856 160.484ZM83.954 160.352C83.7407 160.44 83.5171 160.484 83.2833 160.484C82.9497 160.484 82.6557 160.409 82.4015 160.26C82.1473 160.111 81.9493 159.898 81.8074 159.621C81.6656 159.344 81.5946 159.014 81.5946 158.631C81.5946 158.253 81.6593 157.919 81.7887 157.629C81.9181 157.339 82.1053 157.112 82.3505 156.947C82.5956 156.783 82.8907 156.701 83.2357 156.701C83.5761 156.701 83.8627 156.776 84.0953 156.926C84.328 157.076 84.5044 157.287 84.6247 157.558C84.745 157.83 84.8052 158.15 84.8052 158.518V158.768H82.3266C82.3266 158.987 82.3612 159.182 82.4305 159.355C82.4997 159.528 82.6047 159.664 82.7454 159.764C82.8861 159.863 83.0609 159.913 83.2697 159.913C83.4785 159.913 83.6595 159.864 83.8127 159.765C83.9659 159.667 84.0664 159.52 84.114 159.325H84.7882C84.7473 159.574 84.6514 159.785 84.5005 159.959C84.3495 160.133 84.1674 160.264 83.954 160.352ZM84.1106 158.278H82.3266C82.3266 158.112 82.36 157.949 82.427 157.792C82.4939 157.635 82.5944 157.506 82.7283 157.405C82.8622 157.304 83.0302 157.253 83.2322 157.253C83.4296 157.253 83.5936 157.298 83.7241 157.389C83.8547 157.479 83.9517 157.602 84.0152 157.759C84.0788 157.915 84.1106 158.088 84.1106 158.278ZM87.5764 160.352C87.3687 160.44 87.1219 160.484 86.8359 160.484C86.5908 160.484 86.3609 160.444 86.1465 160.364C85.932 160.284 85.7527 160.159 85.6085 159.987C85.4644 159.816 85.3742 159.596 85.3379 159.328H85.9881C86.0176 159.467 86.0738 159.582 86.1567 159.672C86.2395 159.762 86.3394 159.829 86.4563 159.873C86.5732 159.916 86.6986 159.938 86.8325 159.938C87.0549 159.938 87.2348 159.896 87.3721 159.813C87.5094 159.729 87.5781 159.601 87.5781 159.427C87.5781 159.303 87.5412 159.203 87.4674 159.128C87.3937 159.053 87.2773 158.997 87.1185 158.962L86.4171 158.79C86.1266 158.719 85.8939 158.607 85.7192 158.453C85.5444 158.299 85.4559 158.084 85.4536 157.807C85.4536 157.593 85.5053 157.403 85.6085 157.236C85.7118 157.069 85.8656 156.938 86.0699 156.843C86.2741 156.748 86.5283 156.701 86.8325 156.701C87.2297 156.701 87.5486 156.792 87.7892 156.975C88.0298 157.159 88.1546 157.424 88.1637 157.771H87.5338C87.5111 157.605 87.4379 157.474 87.3142 157.379C87.1905 157.284 87.0277 157.236 86.8257 157.236C86.6169 157.236 86.4455 157.279 86.3116 157.365C86.1777 157.45 86.1107 157.581 86.1107 157.757C86.1107 157.877 86.1595 157.972 86.2571 158.041C86.3547 158.11 86.5011 158.167 86.6963 158.212L87.3636 158.384C87.5361 158.431 87.678 158.493 87.7892 158.569C87.9004 158.646 87.9878 158.73 88.0513 158.821C88.1149 158.913 88.1597 159.008 88.1858 159.107C88.2119 159.205 88.225 159.298 88.225 159.385C88.225 159.615 88.1688 159.812 88.0564 159.975C87.9441 160.138 87.7841 160.264 87.5764 160.352ZM90.2355 160.484C90.5215 160.484 90.7683 160.44 90.976 160.352C91.1837 160.264 91.3437 160.138 91.456 159.975C91.5684 159.812 91.6245 159.615 91.6245 159.385C91.6245 159.298 91.6115 159.205 91.5854 159.107C91.5593 159.008 91.5145 158.913 91.4509 158.821C91.3874 158.73 91.3 158.646 91.1888 158.569C91.0775 158.493 90.9357 158.431 90.7632 158.384L90.0959 158.212C89.9007 158.167 89.7543 158.11 89.6567 158.041C89.5591 157.972 89.5103 157.877 89.5103 157.757C89.5103 157.581 89.5772 157.45 89.7112 157.365C89.8451 157.279 90.0164 157.236 90.2253 157.236C90.4273 157.236 90.5901 157.284 90.7138 157.379C90.8375 157.474 90.9107 157.605 90.9334 157.771H91.5633C91.5542 157.424 91.4294 157.159 91.1888 156.975C90.9482 156.792 90.6293 156.701 90.2321 156.701C89.9279 156.701 89.6737 156.748 89.4694 156.843C89.2652 156.938 89.1114 157.069 89.0081 157.236C88.9048 157.403 88.8532 157.593 88.8532 157.807C88.8555 158.084 88.944 158.299 89.1188 158.453C89.2935 158.607 89.5262 158.719 89.8167 158.79L90.5181 158.962C90.6769 158.997 90.7933 159.053 90.867 159.128C90.9408 159.203 90.9777 159.303 90.9777 159.427C90.9777 159.601 90.909 159.729 90.7717 159.813C90.6344 159.896 90.4545 159.938 90.2321 159.938C90.0982 159.938 89.9727 159.916 89.8559 159.873C89.739 159.829 89.6391 159.762 89.5563 159.672C89.4734 159.582 89.4172 159.467 89.3877 159.328H88.7374C88.7738 159.596 88.864 159.816 89.0081 159.987C89.1522 160.159 89.3316 160.284 89.546 160.364C89.7605 160.444 89.9903 160.484 90.2355 160.484ZM93.6081 157.312V160.412H92.8761V157.312H92.1577V156.77H92.8761V156.217C92.8761 155.925 92.951 155.703 93.1008 155.549C93.2506 155.395 93.4708 155.318 93.7613 155.318H94.4626L94.466 155.84H93.9588C93.818 155.84 93.7221 155.878 93.6711 155.954C93.62 156.03 93.5945 156.147 93.5945 156.305V156.77H94.432V157.312H93.6081ZM96.3956 160.484C96.5567 160.487 96.7094 160.463 96.8535 160.412C96.9976 160.362 97.1225 160.279 97.228 160.165C97.3335 160.052 97.4067 159.899 97.4476 159.709L97.5293 160.414H98.0945V156.771H97.3693V159.142C97.3693 159.393 97.2967 159.584 97.1514 159.715C97.0061 159.845 96.8132 159.91 96.5726 159.91C96.3071 159.91 96.1084 159.842 95.9768 159.706C95.8452 159.57 95.7793 159.392 95.7793 159.174V156.771H95.0473V159.255C95.0473 159.457 95.0842 159.634 95.158 159.787C95.2318 159.939 95.3316 160.067 95.4576 160.171C95.5836 160.274 95.7271 160.352 95.8883 160.403C96.0494 160.455 96.2185 160.482 96.3956 160.484ZM100.136 160.445C100.076 160.457 100.02 160.463 99.9677 160.463C99.7589 160.463 99.5915 160.434 99.4656 160.378C99.3396 160.322 99.2437 160.246 99.1779 160.151C99.112 160.056 99.0684 159.948 99.0468 159.827C99.0252 159.706 99.0145 159.581 99.0145 159.452V155.179H99.7328V159.374C99.7328 159.543 99.7652 159.672 99.8298 159.762C99.8945 159.851 99.9938 159.901 100.128 159.913L100.312 159.92V160.399C100.255 160.418 100.196 160.433 100.136 160.445ZM101.891 160.463C101.943 160.463 101.999 160.457 102.059 160.445C102.119 160.433 102.178 160.418 102.234 160.399V159.92L102.051 159.913C101.917 159.901 101.817 159.851 101.753 159.762C101.688 159.672 101.656 159.543 101.656 159.374V155.179H100.937V159.452C100.937 159.581 100.948 159.706 100.97 159.827C100.991 159.948 101.035 160.056 101.101 160.151C101.167 160.246 101.262 160.322 101.388 160.378C101.514 160.434 101.682 160.463 101.891 160.463ZM103.684 161.495C103.541 161.549 103.385 161.576 103.217 161.576C103.002 161.576 102.852 161.56 102.77 161.527L102.645 161.478V160.991L103.003 160.999C103.139 161.006 103.251 160.997 103.338 160.974C103.426 160.95 103.495 160.918 103.546 160.877C103.597 160.836 103.636 160.792 103.663 160.745C103.691 160.698 103.711 160.654 103.725 160.615L103.834 160.308L102.462 156.771H103.19L104.177 159.463L105.158 156.771H105.873L104.406 160.618C104.306 160.872 104.196 161.068 104.077 161.206C103.958 161.345 103.827 161.441 103.684 161.495Z" fill="#36536B"/>
<ellipse opacity="0.25" cx="68.5985" cy="111.638" rx="14.666" ry="15.1745" fill="#BA4270"/>
<path d="M63.8844 112.558L66.2817 115.038L73.234 107.845" stroke="#BA4270" stroke-width="3"/>
<rect x="35.076" y="172.34" width="68.6159" height="16.2584" rx="8.12918" fill="#BA4270"/>
<path fill-rule="evenodd" clip-rule="evenodd" d="M61.9408 182.372C61.6172 182.549 61.2067 182.637 60.7092 182.637H59.4935V178.327H60.0135C60.1451 178.327 60.2766 178.328 60.4082 178.329C60.5397 178.33 60.6497 178.331 60.738 178.333C61.2431 178.345 61.6551 178.438 61.9739 178.613C62.2927 178.788 62.5266 179.033 62.6754 179.347C62.8242 179.661 62.8987 180.032 62.8987 180.461C62.8987 180.908 62.8199 181.294 62.6624 181.619C62.5049 181.944 62.2644 182.195 61.9408 182.372ZM60.3404 181.933H60.7265C60.9646 181.933 61.1812 181.885 61.3761 181.79C61.571 181.695 61.7271 181.539 61.8442 181.322C61.9614 181.106 62.02 180.816 62.02 180.455C62.02 180.119 61.9681 179.846 61.8644 179.637C61.7607 179.427 61.6128 179.273 61.4207 179.176C61.2287 179.079 61.0011 179.03 60.738 179.03H60.3404V181.933ZM64.3466 179.114V178.33H63.5285V179.114H64.3466ZM64.338 179.555V182.637H63.5342V179.555H64.338ZM66.2353 182.697C66.4831 182.697 66.7011 182.659 66.8893 182.583C67.0775 182.508 67.2244 182.398 67.33 182.254C67.4357 182.11 67.4885 181.935 67.4885 181.731C67.4885 181.661 67.4774 181.583 67.4554 181.497C67.4333 181.41 67.3934 181.324 67.3358 181.239C67.2782 181.154 67.197 181.075 67.0924 181.002C66.9877 180.929 66.8518 180.872 66.6847 180.831L66.2008 180.717C66.0394 180.684 65.9204 180.643 65.8435 180.597C65.7667 180.55 65.7283 180.486 65.7283 180.404C65.7283 180.295 65.7754 180.214 65.8695 180.16C65.9636 180.106 66.0836 180.079 66.2296 180.079C66.3698 180.079 66.4864 180.112 66.5796 180.176C66.6727 180.241 66.7299 180.333 66.751 180.452H67.4539C67.4501 180.148 67.3382 179.913 67.1183 179.746C66.8984 179.579 66.605 179.495 66.2382 179.495C65.9674 179.495 65.7389 179.538 65.5526 179.623C65.3663 179.709 65.2256 179.825 65.1305 179.972C65.0355 180.119 64.9879 180.285 64.9879 180.47C64.9918 180.724 65.0734 180.921 65.2328 181.059C65.3922 181.197 65.6035 181.295 65.8666 181.352L66.3909 181.466C66.5253 181.491 66.6218 181.529 66.6804 181.579C66.739 181.628 66.7683 181.695 66.7683 181.778C66.7683 181.888 66.7188 181.969 66.6199 182.021C66.521 182.074 66.3909 182.1 66.2296 182.1C66.1527 182.1 66.0721 182.087 65.9876 182.06C65.9031 182.033 65.8277 181.988 65.7614 181.925C65.6952 181.861 65.6496 181.775 65.6246 181.665H64.8957C64.9322 181.908 65.0167 182.105 65.1493 182.257C65.2818 182.409 65.4441 182.52 65.6361 182.591C65.8282 182.661 66.0279 182.697 66.2353 182.697ZM68.8731 180.664V182.637H68.0319V179.555H68.8558V179.99C68.946 179.855 69.0675 179.739 69.2202 179.641C69.3729 179.544 69.5654 179.495 69.7978 179.495C69.8996 179.495 70.0033 179.514 70.1089 179.552C70.2146 179.59 70.3139 179.645 70.4071 179.717C70.5002 179.79 70.5756 179.881 70.6332 179.99C70.7293 179.849 70.8555 179.731 71.0121 179.637C71.1686 179.542 71.3429 179.495 71.5349 179.495C71.6463 179.495 71.7592 179.514 71.8734 179.552C71.9877 179.59 72.0928 179.651 72.1889 179.737C72.2849 179.822 72.3622 179.936 72.4208 180.078C72.4794 180.22 72.5086 180.395 72.5086 180.604V182.637H71.6674V180.711C71.6674 180.588 71.6439 180.489 71.5969 180.415C71.5498 180.34 71.4903 180.287 71.4183 180.254C71.3462 180.221 71.2699 180.205 71.1892 180.205C71.1143 180.205 71.0385 180.22 70.9616 180.251C70.8848 180.282 70.8195 180.331 70.7657 180.398C70.712 180.466 70.6851 180.554 70.6851 180.664V182.637H69.8468V180.634C69.8468 180.541 69.8228 180.462 69.7747 180.398C69.7267 180.335 69.6667 180.287 69.5947 180.254C69.5227 180.221 69.4492 180.205 69.3743 180.205C69.2975 180.205 69.2207 180.221 69.1438 180.254C69.067 180.287 69.0027 180.337 68.9508 180.406C68.899 180.474 68.8731 180.56 68.8731 180.664ZM74.0027 179.114V178.33H73.1846V179.114H74.0027ZM73.994 179.555V182.637H73.1902V179.555H73.994ZM75.8913 182.697C76.1391 182.697 76.3571 182.659 76.5453 182.583C76.7335 182.508 76.8804 182.398 76.986 182.254C77.0917 182.11 77.1445 181.935 77.1445 181.731C77.1445 181.661 77.1334 181.583 77.1114 181.497C77.0893 181.41 77.0494 181.324 76.9918 181.239C76.9342 181.154 76.853 181.075 76.7484 181.002C76.6437 180.929 76.5078 180.872 76.3407 180.831L75.8568 180.717C75.6954 180.684 75.5764 180.643 75.4995 180.597C75.4227 180.55 75.3843 180.486 75.3843 180.404C75.3843 180.295 75.4314 180.214 75.5255 180.16C75.6196 180.106 75.7396 180.079 75.8856 180.079C76.0258 180.079 76.1424 180.112 76.2356 180.176C76.3287 180.241 76.3859 180.333 76.407 180.452H77.1099C77.1061 180.148 76.9942 179.913 76.7743 179.746C76.5544 179.579 76.261 179.495 75.8942 179.495C75.6234 179.495 75.3949 179.538 75.2086 179.623C75.0223 179.709 74.8816 179.825 74.7865 179.972C74.6915 180.119 74.6439 180.285 74.6439 180.47C74.6478 180.724 74.7294 180.921 74.8888 181.059C75.0482 181.197 75.2595 181.295 75.5226 181.352L76.0469 181.466C76.1813 181.491 76.2778 181.529 76.3364 181.579C76.395 181.628 76.4243 181.695 76.4243 181.778C76.4243 181.888 76.3748 181.969 76.2759 182.021C76.177 182.074 76.0469 182.1 75.8856 182.1C75.8087 182.1 75.7281 182.087 75.6436 182.06C75.5591 182.033 75.4837 181.988 75.4174 181.925C75.3512 181.861 75.3056 181.775 75.2806 181.665H74.5517C74.5882 181.908 74.6727 182.105 74.8053 182.257C74.9378 182.409 75.1001 182.52 75.2921 182.591C75.4842 182.661 75.6839 182.697 75.8913 182.697ZM79.4826 182.583C79.2944 182.659 79.0764 182.697 78.8287 182.697C78.6213 182.697 78.4215 182.661 78.2295 182.591C78.0374 182.52 77.8751 182.409 77.7426 182.257C77.6101 182.105 77.5256 181.908 77.4891 181.665H78.218C78.2429 181.775 78.2885 181.861 78.3548 181.925C78.4211 181.988 78.4964 182.033 78.5809 182.06C78.6654 182.087 78.7461 182.1 78.8229 182.1C78.9843 182.1 79.1144 182.074 79.2133 182.021C79.3122 181.969 79.3616 181.888 79.3616 181.778C79.3616 181.695 79.3324 181.628 79.2738 181.579C79.2152 181.529 79.1187 181.491 78.9843 181.466L78.4599 181.352C78.1968 181.295 77.9856 181.197 77.8262 181.059C77.6668 180.921 77.5851 180.724 77.5813 180.47C77.5813 180.285 77.6288 180.119 77.7239 179.972C77.819 179.825 77.9596 179.709 78.1459 179.623C78.3322 179.538 78.5608 179.495 78.8316 179.495C79.1984 179.495 79.4918 179.579 79.7117 179.746C79.9316 179.913 80.0434 180.148 80.0473 180.452H79.3444C79.3232 180.333 79.2661 180.241 79.173 180.176C79.0798 180.112 78.9631 180.079 78.8229 180.079C78.677 180.079 78.5569 180.106 78.4628 180.16C78.3687 180.214 78.3217 180.295 78.3217 180.404C78.3217 180.486 78.3601 180.55 78.4369 180.597C78.5137 180.643 78.6328 180.684 78.7941 180.717L79.2781 180.831C79.4452 180.872 79.5811 180.929 79.6857 181.002C79.7904 181.075 79.8715 181.154 79.9292 181.239C79.9868 181.324 80.0266 181.41 80.0487 181.497C80.0708 181.583 80.0819 181.661 80.0819 181.731C80.0819 181.935 80.029 182.11 79.9234 182.254C79.8178 182.398 79.6709 182.508 79.4826 182.583Z" fill="#FBFCFE"/>
<defs>
<filter id="filter0_d_0_1" x="18.0291" y="71.9551" width="122.186" height="133.512" filterUnits="userSpaceOnUse" color-interpolation-filters="sRGB">
<feFlood flood-opacity="0" result="BackgroundImageFix"/>
<feColorMatrix in="SourceAlpha" type="matrix" values="0 0 0 0 0 0 0 0 0 0 0 0 0 0 0 0 0 0 127 0" result="hardAlpha"/>
<feMorphology radius="10" operator="erode" in="SourceAlpha" result="effect1_dropShadow_0_1"/>
<feOffset dx="10" dy="10"/>
<feGaussianBlur stdDeviation="12.5"/>
<feColorMatrix type="matrix" values="0 0 0 0 0.212302 0 0 0 0 0.32521 0 0 0 0 0.419299 0 0 0 0.25 0"/>
<feBlend mode="normal" in2="BackgroundImageFix" result="effect1_dropShadow_0_1"/>
<feBlend mode="normal" in="SourceGraphic" in2="effect1_dropShadow_0_1" result="shape"/>
</filter>
<linearGradient id="paint0_linear_0_1" x1="0.506226" y1="0" x2="0.506226" y2="270.664" gradientUnits="userSpaceOnUse">
<stop stop-color="#454545"/>
<stop offset="0.226279" stop-color="#999999"/>
<stop offset="1" stop-color="white"/>
</linearGradient>
<linearGradient id="paint1_linear_0_1" x1="138" y1="41.5491" x2="42.719" y2="41.5491" gradientUnits="userSpaceOnUse">
<stop stop-color="white" stop-opacity="0.01"/>
<stop offset="0.222178" stop-color="#BABABA"/>
<stop offset="0.54678" stop-color="white" stop-opacity="0.01"/>
<stop offset="1" stop-color="white" stop-opacity="0.01"/>
</linearGradient>
<linearGradient id="paint2_linear_0_1" x1="138" y1="41.3992" x2="42.5667" y2="41.3992" gradientUnits="userSpaceOnUse">
<stop stop-color="white" stop-opacity="0.01"/>
<stop offset="0.222178" stop-color="#BABABA"/>
<stop offset="0.54678" stop-color="white" stop-opacity="0.01"/>
<stop offset="1" stop-color="white" stop-opacity="0.01"/>
</linearGradient>
<clipPath id="clip0_0_1">
<rect width="375" height="4187" fill="white" transform="translate(-198 -2011)"/>
</clipPath>
</defs>
</svg>
